<?xml version="1.0" standalone="no"?>
<!DOCTYPE svg PUBLIC "-//W3C//DTD SVG 20010904//EN"
 "http://www.w3.org/TR/2001/REC-SVG-20010904/DTD/svg10.dtd">
<svg version="1.0" xmlns="http://www.w3.org/2000/svg"
 width="4160.000000pt" height="4160.000000pt" viewBox="0 0 4160.000000 4160.000000"
 preserveAspectRatio="xMidYMid meet">
<metadata>
Created by potrace 1.14, written by Peter Selinger 2001-2017
</metadata>
<g transform="translate(0.000000,4160.000000) scale(0.100000,-0.100000)"
fill="#000000" stroke="none">
<path d="M31428 24795 c-2 -2 -29 -6 -61 -9 -88 -10 -205 -37 -342 -80 -10 -3
-39 -14 -100 -39 -52 -21 -220 -109 -236 -123 -8 -8 -19 -14 -23 -14 -4 0 -51
-33 -104 -72 -106 -80 -252 -222 -316 -308 -22 -30 -45 -58 -49 -61 -5 -4 -14
-16 -20 -27 -7 -11 -36 -60 -64 -109 -29 -48 -53 -94 -53 -100 0 -7 -4 -13
-10 -13 -5 0 -10 -6 -10 -13 0 -8 -8 -29 -17 -48 -10 -19 -18 -38 -20 -44 -1
-5 -14 -41 -28 -80 -15 -38 -27 -77 -27 -85 0 -8 -5 -21 -11 -27 -5 -7 -7 -13
-4 -13 3 0 0 -21 -8 -47 -8 -27 -16 -64 -18 -83 -3 -19 -6 -35 -7 -35 -12 0
-15 -592 -15 -3260 l0 -3140 853 0 852 0 0 70 c1 38 2 711 4 1495 2 784 6
1436 9 1450 3 14 9 43 12 65 9 52 51 184 77 243 12 26 22 53 24 60 1 8 10 22
18 31 9 10 16 22 16 28 0 14 92 146 137 194 93 101 229 180 378 220 128 34
453 34 485 -1 3 -3 14 -7 25 -8 91 -16 240 -128 317 -238 60 -86 126 -243 143
-341 23 -142 25 -151 32 -263 4 -58 7 -756 7 -1552 0 -1009 3 -1448 10 -1449
6 -1 394 -2 863 -3 l852 -1 -3 1725 c-2 949 -6 1739 -9 1755 -4 17 -9 53 -12
80 -27 245 -112 571 -185 716 -11 21 -17 39 -13 39 5 0 3 4 -3 8 -6 4 -27 39
-46 77 -33 66 -113 194 -128 205 -4 3 -9 10 -11 16 -10 29 -160 190 -250 269
-140 124 -344 242 -529 305 -52 17 -104 36 -115 40 -20 8 -168 42 -195 45 -8
1 -58 8 -110 15 -102 13 -412 17 -495 6 -108 -14 -131 -17 -150 -21 -11 -2
-20 -4 -20 -5 0 -1 -11 -3 -25 -5 -75 -10 -222 -58 -340 -111 -65 -28 -234
-119 -254 -135 -6 -5 -38 -29 -71 -54 -154 -114 -273 -237 -379 -392 -27 -40
-52 -70 -56 -68 -4 3 -8 724 -8 1602 -1 879 -1 1626 -2 1661 l0 63 -80 -2
c-44 -1 -81 -3 -82 -4z"/>
<path d="M2707 22293 c-1 -1 -51 -4 -112 -6 -60 -3 -110 -6 -110 -7 0 -1 -16
-3 -35 -5 -19 -1 -55 -6 -80 -9 -25 -4 -60 -10 -79 -12 -39 -6 -49 -9 -111
-23 -25 -5 -56 -12 -70 -14 -14 -3 -51 -13 -84 -22 -32 -9 -64 -18 -70 -20 -6
-1 -18 -5 -26 -8 -74 -29 -159 -55 -164 -50 -3 4 -6 1 -6 -5 0 -7 -9 -12 -20
-12 -11 0 -20 -5 -20 -12 0 -6 -3 -9 -6 -5 -3 3 -29 -5 -58 -17 -75 -34 -210
-100 -216 -106 -3 -3 -25 -16 -50 -29 -25 -13 -64 -37 -88 -53 -24 -15 -45
-28 -47 -28 -8 0 -215 -152 -251 -185 -6 -5 -35 -30 -65 -55 -114 -96 -264
-255 -363 -385 -34 -44 -67 -86 -73 -93 -7 -7 -13 -17 -13 -22 0 -5 -6 -15
-13 -22 -12 -13 -75 -110 -115 -178 -24 -41 -131 -250 -130 -253 1 -1 -6 -18
-15 -37 -8 -19 -32 -80 -52 -135 -20 -55 -39 -107 -42 -115 -3 -8 -5 -19 -4
-23 0 -4 -3 -16 -8 -26 -6 -10 -12 -29 -15 -42 -9 -42 -14 -63 -24 -104 -6
-22 -13 -53 -16 -69 -3 -16 -10 -52 -15 -80 -28 -142 -36 -252 -36 -476 0
-184 7 -318 19 -375 2 -11 7 -40 10 -65 3 -25 15 -85 26 -135 11 -49 23 -101
26 -115 2 -14 19 -70 36 -125 17 -55 31 -102 30 -105 0 -3 3 -9 8 -15 4 -5 13
-28 20 -50 7 -22 16 -44 19 -50 4 -5 18 -38 31 -72 14 -35 28 -63 32 -63 5 0
8 -6 8 -14 0 -14 74 -159 94 -186 7 -8 21 -32 31 -52 11 -21 23 -38 27 -38 5
0 8 -5 8 -11 0 -9 55 -97 69 -109 3 -3 22 -27 40 -55 19 -27 37 -52 40 -55 4
-3 26 -30 51 -60 234 -289 567 -551 910 -718 119 -57 178 -84 200 -88 8 -2 23
-7 35 -13 22 -11 132 -51 155 -57 8 -2 67 -17 130 -34 63 -17 131 -33 150 -36
19 -3 51 -9 70 -14 19 -5 59 -11 88 -14 28 -3 76 -9 105 -13 69 -10 485 -10
567 0 109 12 247 34 330 52 14 3 34 7 45 9 11 2 31 8 45 14 14 5 27 10 30 10
3 0 25 6 50 13 25 7 47 13 50 14 3 0 43 14 90 30 47 16 88 28 93 27 4 -1 7 3
7 8 0 5 3 9 8 8 23 -5 416 193 442 222 3 3 23 17 45 30 40 24 198 138 245 178
162 136 324 304 435 452 27 36 53 67 57 68 4 2 8 10 8 17 0 7 4 15 8 17 4 2
29 37 55 78 25 41 50 80 54 85 8 10 32 54 95 175 19 36 49 101 67 145 19 44
39 94 46 110 23 54 90 271 101 328 2 10 5 26 8 35 3 9 8 35 12 57 3 22 7 42 9
45 2 3 7 33 10 65 4 33 9 62 10 65 6 10 18 145 19 207 1 35 3 63 6 63 12 0 -3
344 -20 455 -7 44 -14 89 -15 100 -8 52 -17 103 -25 135 -5 19 -11 46 -14 60
-14 73 -95 321 -132 405 -10 22 -18 42 -19 45 -4 18 -85 178 -123 245 -43 75
-170 274 -182 285 -3 3 -21 25 -40 50 -19 25 -39 50 -45 56 -5 7 -26 31 -45
54 -79 95 -236 249 -349 340 -23 19 -52 43 -63 53 -12 9 -24 17 -27 17 -3 0
-20 13 -37 28 -18 15 -48 36 -68 47 -20 11 -36 23 -36 27 0 5 -6 8 -14 8 -8 0
-16 4 -18 8 -11 27 -338 194 -488 249 -30 11 -75 28 -100 37 -57 22 -179 57
-206 60 -11 1 -24 5 -30 8 -11 7 -77 21 -153 34 -18 3 -43 8 -55 10 -11 3 -41
7 -66 10 -25 3 -58 8 -75 10 -63 8 -363 22 -368 17z"/>
<path d="M8927 22294 c-1 -1 -72 -4 -157 -7 -85 -4 -171 -9 -190 -11 -60 -9
-161 -24 -205 -32 -16 -3 -84 -19 -150 -35 -66 -17 -124 -31 -130 -33 -18 -4
-90 -27 -110 -36 -11 -4 -60 -24 -110 -45 -49 -20 -94 -37 -100 -39 -11 -3
-192 -92 -215 -106 -8 -5 -51 -30 -95 -56 -84 -50 -344 -234 -330 -234 4 0
-10 -13 -33 -29 -72 -53 -290 -276 -370 -380 -16 -21 -92 -123 -117 -158 -31
-42 -127 -203 -155 -258 -14 -28 -27 -52 -30 -55 -3 -3 -25 -50 -49 -105 -24
-55 -49 -113 -57 -130 -54 -120 -139 -439 -158 -595 -3 -19 -5 -35 -6 -35 -2
0 -6 -50 -16 -180 -10 -136 -9 -248 1 -390 4 -60 8 -118 9 -127 0 -10 3 -18 6
-18 3 0 6 -15 6 -33 3 -49 12 -120 18 -137 3 -8 7 -26 10 -40 21 -124 121
-443 164 -526 5 -11 34 -68 63 -129 69 -143 189 -340 261 -430 133 -166 154
-189 263 -299 88 -88 176 -166 252 -223 26 -20 50 -39 53 -42 3 -3 12 -10 21
-16 9 -5 57 -37 105 -70 49 -33 103 -67 119 -75 17 -8 32 -17 35 -21 5 -6 275
-143 275 -139 0 1 14 -4 30 -10 17 -7 51 -20 78 -30 26 -9 50 -20 54 -23 3 -4
17 -7 29 -7 13 0 25 -4 28 -9 3 -5 16 -11 28 -14 13 -2 68 -17 123 -32 55 -15
109 -28 120 -31 103 -20 142 -27 230 -40 11 -1 20 -3 20 -4 0 -7 167 -14 335
-14 188 -1 328 6 405 19 17 3 46 8 65 11 19 3 46 8 60 10 42 7 174 36 190 42
8 3 20 6 25 7 8 2 71 20 110 31 74 22 252 93 352 141 144 69 380 210 455 273
7 5 51 40 98 77 47 37 94 77 106 88 12 11 48 45 80 76 101 96 210 221 291 333
28 39 58 78 65 87 7 9 19 27 27 40 8 13 38 62 66 109 46 75 165 308 171 335 1
6 14 38 28 73 44 112 85 244 111 362 2 8 4 16 5 18 2 1 4 7 5 12 1 6 3 11 4
13 1 1 4 18 6 37 3 19 7 46 10 60 3 14 8 45 11 70 3 25 7 52 9 60 25 91 25
600 0 714 -3 11 -7 41 -9 67 -3 25 -7 52 -10 60 -3 7 -8 31 -11 53 -3 21 -7
41 -9 45 -2 3 -7 22 -10 41 -7 47 -61 232 -74 256 -5 10 -10 23 -10 27 0 11
-30 94 -52 142 -85 187 -173 358 -197 383 -7 7 -20 28 -28 46 -9 18 -25 43
-35 54 -11 12 -20 24 -20 27 0 3 -4 11 -10 18 -5 7 -54 68 -109 137 -124 156
-319 353 -415 419 -12 8 -23 18 -26 21 -7 9 -146 110 -195 141 -155 100 -407
230 -500 259 -22 7 -44 16 -50 20 -9 7 -234 77 -273 85 -9 2 -46 11 -82 20
-36 9 -81 18 -100 21 -19 2 -57 9 -85 14 -51 10 -98 15 -240 26 -126 9 -155
11 -158 8z"/>
<path d="M15045 22294 c-5 -2 -66 -5 -135 -8 -130 -5 -204 -11 -255 -19 -87
-15 -121 -21 -130 -22 -5 0 -28 -5 -50 -9 -22 -5 -47 -10 -55 -11 -64 -11
-361 -103 -375 -116 -5 -5 -15 -9 -23 -9 -36 0 -334 -152 -480 -244 -102 -65
-297 -213 -358 -271 -11 -11 -36 -34 -55 -51 -75 -69 -241 -254 -294 -328 -11
-15 -35 -47 -52 -71 -66 -87 -157 -242 -225 -379 -38 -78 -73 -148 -77 -156
-5 -9 -12 -30 -16 -48 -3 -18 -11 -32 -16 -32 -5 0 -8 -3 -7 -7 2 -13 -14 -67
-25 -80 -5 -7 -7 -13 -4 -13 3 0 -1 -16 -9 -35 -8 -19 -15 -38 -15 -42 -1 -5
-3 -12 -5 -18 -6 -17 -43 -169 -48 -195 -2 -14 -9 -45 -14 -70 -6 -25 -14 -72
-17 -105 -4 -33 -9 -62 -10 -65 -8 -14 -19 -210 -19 -350 0 -170 15 -352 40
-472 2 -13 7 -39 10 -58 4 -19 7 -39 9 -45 22 -100 31 -132 70 -252 20 -62 49
-145 66 -185 17 -40 33 -82 36 -93 3 -11 12 -27 19 -35 7 -8 13 -19 13 -25 1
-14 65 -139 74 -143 4 -2 7 -8 7 -13 0 -12 120 -209 140 -229 3 -3 21 -27 39
-55 19 -27 37 -52 40 -55 4 -3 22 -25 41 -50 65 -84 270 -298 351 -365 128
-107 336 -255 382 -271 9 -3 17 -11 17 -16 0 -5 4 -7 9 -3 5 3 12 1 16 -4 6
-10 20 -18 158 -88 86 -43 271 -121 305 -128 9 -2 41 -13 70 -24 29 -11 54
-19 55 -19 1 0 22 -5 47 -12 43 -12 56 -15 110 -26 14 -3 32 -7 40 -9 8 -2 15
-4 15 -5 0 -1 9 -3 20 -5 52 -9 73 -13 115 -20 158 -25 226 -30 445 -30 187 1
331 8 390 22 11 2 29 5 40 7 74 11 123 21 215 42 58 14 112 27 120 31 8 3 20
7 25 8 114 27 512 193 553 232 6 6 22 15 34 19 12 3 26 11 32 16 6 5 58 39
116 77 246 159 489 385 667 620 35 47 70 93 76 101 7 8 23 33 37 55 13 22 28
42 32 43 4 2 8 8 8 13 0 5 18 38 40 75 46 74 160 305 160 322 0 7 4 12 8 12 5
0 9 6 9 13 0 6 13 48 30 92 51 132 111 353 127 470 3 17 7 47 10 68 22 140 28
227 30 387 2 203 -18 400 -59 585 -9 39 -18 84 -21 100 -3 17 -10 38 -15 47
-5 9 -9 28 -9 42 0 14 -4 27 -9 30 -4 3 -12 20 -16 38 -9 39 -7 32 -24 83 -8
22 -18 46 -24 53 -5 6 -7 12 -4 12 3 0 -3 21 -15 48 -11 26 -29 67 -40 92 -32
72 -122 249 -141 274 -4 6 -35 54 -68 106 -64 98 -157 224 -219 295 -42 49
-218 225 -280 281 -100 90 -389 294 -418 294 -6 0 -12 4 -14 9 -2 8 -218 125
-225 122 -3 0 -80 32 -128 54 -102 48 -407 134 -530 151 -16 2 -35 6 -42 8 -6
3 -36 8 -65 11 -29 3 -71 8 -93 11 -22 3 -87 7 -145 10 -58 2 -112 6 -120 7
-8 2 -19 2 -25 1z"/>
<path d="M20976 22283 c-2 -2 -37 -6 -77 -8 -41 -2 -83 -6 -94 -8 -11 -3 -45
-8 -75 -12 -30 -4 -64 -9 -75 -11 -11 -3 -51 -11 -90 -19 -105 -21 -108 -22
-192 -46 -245 -68 -492 -172 -668 -279 -37 -22 -69 -40 -72 -40 -8 0 -215
-150 -273 -198 -131 -109 -250 -229 -349 -352 -25 -30 -51 -61 -60 -67 -8 -7
-11 -13 -6 -13 5 0 -3 -12 -16 -27 -14 -16 -39 -49 -55 -75 -16 -27 -32 -48
-36 -48 -5 0 -8 -5 -8 -11 0 -6 -8 -23 -19 -37 -10 -15 -35 -58 -56 -97 -21
-38 -48 -89 -61 -112 -13 -24 -21 -43 -18 -43 4 0 2 -6 -4 -12 -36 -44 -148
-368 -188 -543 -14 -58 -22 -98 -29 -140 -3 -16 -7 -43 -10 -60 -7 -35 -11
-67 -20 -150 -24 -206 -17 -668 10 -801 3 -12 7 -39 10 -60 3 -21 10 -59 15
-84 5 -25 12 -57 14 -71 15 -92 114 -404 157 -493 10 -22 19 -46 19 -53 0 -7
5 -13 10 -13 6 0 10 -6 10 -13 0 -18 24 -67 33 -67 4 0 7 -6 7 -13 0 -18 24
-67 33 -67 4 0 7 -5 7 -11 0 -14 119 -203 131 -207 5 -2 9 -9 9 -15 0 -7 10
-23 23 -37 13 -14 27 -32 33 -41 40 -71 282 -315 414 -418 129 -100 114 -89
180 -132 141 -92 271 -161 445 -239 65 -29 277 -103 330 -115 11 -2 72 -18
135 -35 63 -16 132 -32 152 -35 20 -3 69 -12 109 -19 39 -8 82 -13 95 -11 13
1 24 -1 24 -4 0 -12 98 -15 445 -16 316 0 440 5 515 20 14 3 54 10 90 16 36 6
70 12 75 13 65 15 132 29 143 29 6 0 12 3 12 7 0 3 8 6 18 7 25 1 57 10 147
38 44 13 83 25 88 25 4 0 20 6 36 14 16 9 31 12 35 9 3 -4 6 -1 6 5 0 7 7 12
15 12 34 0 365 152 373 172 2 5 8 8 14 8 15 0 258 162 258 172 0 4 5 8 11 8 6
0 16 6 23 13 7 6 40 34 72 62 86 72 294 286 294 301 0 3 6 11 13 18 14 14 46
56 82 105 l25 35 -63 40 c-144 92 -195 124 -257 161 -36 21 -67 41 -70 45 -19
22 -292 173 -310 172 -3 0 -9 3 -15 8 -19 16 -184 57 -265 66 -77 9 -282 5
-310 -6 -3 -1 -8 -2 -12 -1 -20 2 -213 -61 -278 -91 -175 -83 -283 -124 -377
-144 -6 -1 -34 -7 -62 -13 -194 -41 -549 -27 -696 29 -14 5 -25 8 -25 5 0 -3
-24 5 -95 34 -188 77 -360 189 -467 306 -65 71 -80 89 -120 148 -71 104 -135
274 -150 397 l-3 25 1877 0 c1032 0 1880 4 1885 9 14 14 8 781 -7 781 -1 0 -3
20 -5 45 -2 25 -6 61 -9 80 -8 59 -17 114 -22 138 -2 12 -6 34 -9 50 -15 76
-80 335 -92 362 -4 8 -8 22 -9 30 -9 61 -150 379 -226 510 -138 240 -368 515
-548 653 -30 23 -62 50 -72 60 -10 9 -22 17 -26 17 -5 0 -17 8 -28 18 -54 50
-323 203 -424 242 -19 7 -51 20 -70 28 -63 26 -74 30 -155 55 -121 39 -191 57
-214 57 -12 0 -21 3 -21 8 0 4 -10 7 -22 8 -13 0 -36 4 -53 8 -16 3 -46 9 -65
12 -19 3 -46 7 -59 9 -28 5 -86 13 -151 21 -53 7 -538 13 -544 7z m335 -1167
c197 -11 341 -49 487 -130 28 -16 52 -33 52 -38 0 -4 6 -8 13 -8 14 0 106 -87
156 -148 119 -147 201 -348 217 -534 2 -26 4 -51 5 -55 1 -4 1 -21 0 -38 l-1
-30 -1098 1 c-951 0 -1097 2 -1094 15 2 7 5 32 7 54 9 113 94 331 164 419 17
21 31 42 31 46 0 13 145 155 205 201 190 145 423 230 669 244 32 2 60 6 63 9
3 2 10 3 16 1 7 -2 55 -7 108 -9z"/>
<path d="M27175 22282 c-2 -2 -43 -6 -92 -8 -48 -2 -103 -6 -120 -9 -18 -3
-57 -8 -85 -11 -29 -3 -64 -8 -78 -10 -68 -12 -94 -16 -114 -18 -12 -1 -26 -5
-31 -8 -6 -3 -32 -9 -59 -12 -27 -4 -57 -11 -67 -17 -10 -5 -22 -9 -26 -8 -4
1 -10 0 -13 -1 -7 -2 -30 -8 -60 -14 -14 -3 -64 -19 -112 -35 -47 -16 -89 -27
-92 -23 -3 3 -6 1 -6 -4 0 -5 -8 -10 -17 -11 -10 -1 -36 -9 -58 -19 -22 -10
-44 -18 -50 -20 -12 -2 -105 -44 -205 -92 -90 -42 -287 -157 -316 -183 -11
-11 -24 -19 -27 -19 -4 0 -29 -17 -55 -37 -27 -21 -64 -49 -82 -63 -94 -69
-293 -262 -372 -360 -29 -36 -56 -67 -59 -70 -3 -3 -31 -41 -62 -85 -31 -44
-60 -84 -65 -90 -8 -10 -50 -80 -89 -150 -40 -70 -120 -240 -137 -289 -9 -26
-23 -61 -31 -77 -9 -16 -13 -29 -10 -29 3 0 -1 -17 -9 -37 -21 -58 -54 -170
-72 -248 -21 -93 -23 -104 -30 -145 -2 -19 -9 -57 -14 -85 -50 -263 -43 -735
15 -1015 3 -14 8 -41 11 -60 3 -19 7 -42 10 -50 3 -8 8 -26 10 -38 14 -74 91
-320 106 -338 5 -7 8 -16 7 -20 -1 -5 1 -18 6 -29 93 -230 246 -484 417 -692
52 -62 258 -263 328 -318 41 -33 77 -62 80 -66 10 -10 236 -157 280 -182 25
-13 70 -38 101 -55 31 -17 59 -28 63 -25 3 4 6 1 6 -5 0 -7 4 -12 9 -12 4 0
39 -14 77 -32 38 -17 71 -32 74 -33 3 -1 19 -5 35 -10 17 -4 32 -11 35 -14 5
-7 21 -12 170 -57 123 -38 221 -64 255 -70 41 -6 70 -12 70 -14 0 -1 11 -3 25
-4 14 -2 37 -6 51 -9 14 -4 44 -9 65 -12 21 -3 48 -7 59 -10 70 -15 201 -20
505 -20 372 0 445 4 606 36 28 5 64 12 80 15 16 3 47 10 69 16 22 5 49 12 60
13 11 2 29 6 40 8 11 3 34 8 50 12 17 4 35 10 40 14 6 3 15 6 22 7 13 2 171
52 193 61 8 3 17 7 20 8 6 2 29 11 105 43 84 34 237 111 256 128 8 8 19 14 23
14 8 0 177 113 197 132 8 7 32 26 54 43 22 16 57 46 78 67 l39 37 -44 53 c-23
29 -48 57 -54 63 -6 5 -51 60 -100 120 -49 61 -135 165 -191 232 -57 67 -103
125 -103 128 0 3 -10 16 -22 29 -13 13 -41 43 -64 67 -61 66 -95 91 -209 152
-22 11 -42 21 -45 22 -3 0 -23 7 -45 15 -22 7 -49 14 -60 16 -11 1 -31 5 -45
8 -43 11 -232 6 -270 -7 -151 -51 -335 -102 -412 -114 -99 -15 -396 -9 -478
11 -87 20 -89 21 -115 31 -11 4 -49 19 -85 33 -77 29 -175 85 -251 142 -58 44
-209 189 -209 201 0 4 -6 14 -13 21 -111 116 -238 428 -265 653 -8 70 -7 371
2 420 4 22 9 49 11 60 1 11 8 43 15 70 6 28 13 55 14 60 1 6 5 16 9 23 5 6 6
12 3 12 -3 0 3 20 14 45 11 25 20 49 21 53 1 4 6 18 12 32 5 14 11 32 13 40 2
8 8 16 13 18 6 2 11 10 11 17 0 28 109 199 175 275 35 39 123 128 152 151 64
52 132 97 137 92 3 -4 6 -2 6 4 0 11 180 99 220 107 14 3 46 12 73 20 74 23
140 30 292 29 140 -2 211 -10 295 -34 25 -7 50 -13 55 -15 24 -5 131 -48 141
-56 7 -5 20 -10 30 -12 11 -3 33 -10 49 -17 17 -7 35 -13 40 -14 6 -1 37 -7
70 -14 57 -13 201 -11 268 4 46 10 140 47 169 66 14 11 30 19 36 19 19 0 118
92 202 189 30 35 60 68 65 75 6 6 37 42 70 80 33 39 71 82 85 97 35 38 106
119 131 149 26 31 96 113 143 165 l36 40 -52 50 c-58 56 -180 149 -272 210
-66 43 -276 152 -346 179 -25 10 -56 23 -70 29 -14 6 -28 11 -32 12 -5 2 -9 3
-10 5 -2 1 -10 3 -18 5 -8 2 -55 17 -105 34 -49 17 -91 31 -92 31 -2 1 -8 2
-15 4 -7 2 -31 9 -53 15 -22 6 -64 17 -94 26 -29 8 -57 12 -62 10 -4 -3 -10
-1 -13 4 -3 5 -27 12 -53 16 -27 5 -52 9 -58 11 -5 1 -27 5 -49 9 -21 4 -48 8
-60 11 -11 2 -43 6 -71 9 -27 4 -63 8 -80 11 -65 11 -471 24 -480 16z"/>
<path d="M38277 22284 c-2 -2 -33 -6 -69 -9 -36 -3 -74 -7 -84 -9 -18 -3 -47
-8 -134 -21 -35 -5 -46 -7 -135 -25 -65 -13 -82 -17 -130 -30 -22 -6 -47 -12
-55 -14 -96 -24 -292 -88 -365 -121 -29 -13 -56 -21 -59 -17 -3 3 -6 0 -6 -6
0 -7 -6 -12 -14 -12 -26 0 -351 -175 -411 -222 -5 -4 -66 -49 -135 -100 -118
-88 -324 -282 -400 -377 -19 -24 -40 -49 -45 -55 -45 -48 -230 -326 -217 -326
4 0 2 -4 -4 -8 -18 -12 -110 -198 -153 -312 -10 -25 -22 -54 -26 -65 -5 -11
-9 -22 -10 -25 -1 -3 -13 -41 -27 -86 -34 -103 -64 -218 -73 -274 -2 -14 -8
-45 -14 -70 -5 -25 -13 -67 -16 -95 -4 -27 -8 -61 -11 -75 -22 -127 -22 -548
1 -722 17 -133 23 -166 46 -268 26 -118 27 -125 29 -125 1 0 3 -9 5 -21 9 -44
85 -265 114 -329 17 -37 31 -73 31 -79 0 -7 5 -17 12 -24 6 -6 13 -17 14 -24
2 -14 114 -220 123 -228 3 -3 12 -16 19 -30 12 -24 150 -220 161 -230 3 -3 24
-27 46 -55 40 -50 244 -258 300 -306 107 -90 300 -226 396 -278 24 -13 47 -29
51 -35 4 -6 8 -8 8 -4 0 4 26 -8 58 -25 31 -18 86 -45 122 -61 36 -16 84 -37
107 -47 23 -11 75 -31 115 -45 40 -14 80 -28 88 -31 8 -3 20 -7 25 -8 6 -2 53
-15 105 -30 52 -16 104 -30 115 -32 11 -1 49 -10 85 -18 36 -8 90 -19 120 -25
30 -5 66 -12 80 -14 14 -3 48 -8 75 -11 28 -2 82 -8 120 -12 94 -10 470 -10
570 0 163 15 243 25 270 34 11 3 29 7 40 8 31 3 94 16 155 32 30 8 66 16 80
19 14 2 32 7 40 11 8 3 22 7 30 9 8 2 62 18 120 37 270 88 537 224 775 395 50
36 92 68 95 71 3 3 21 18 40 33 58 44 250 223 250 233 0 1 15 18 33 37 33 35
54 59 122 143 46 57 192 276 202 303 4 9 9 19 13 22 10 8 140 280 140 293 0 3
8 22 17 43 9 22 18 46 19 55 2 9 9 29 15 45 7 16 13 32 14 37 2 4 3 8 5 10 1
1 3 9 5 17 2 8 13 50 25 93 12 43 24 90 26 104 3 15 7 30 9 34 3 4 7 24 11 45
3 22 9 59 14 84 5 24 6 48 4 52 -3 5 -2 8 3 8 4 0 9 12 9 28 1 15 5 61 10 102
17 148 10 596 -11 730 -28 175 -73 382 -89 408 -3 5 -7 19 -9 33 -3 13 -15 49
-27 79 -12 30 -21 55 -20 55 1 0 -3 11 -8 25 -53 137 -98 235 -123 271 -10 14
-19 32 -21 39 -8 37 -198 321 -268 400 -12 14 -45 51 -73 84 -132 150 -410
384 -529 445 -15 8 -36 22 -46 31 -10 10 -28 21 -40 24 -12 4 -22 12 -22 17 0
5 -9 9 -19 9 -11 0 -26 6 -33 13 -12 12 -153 82 -248 124 -19 8 -43 20 -54 25
-10 5 -26 11 -35 13 -22 6 -101 33 -126 45 -18 8 -133 42 -145 42 -3 0 -27 7
-54 15 -27 8 -58 17 -68 19 -32 7 -62 13 -113 24 -113 23 -141 28 -191 35 -21
2 -57 7 -79 10 -22 3 -62 9 -90 12 -57 6 -592 12 -598 7z m358 -1398 c44 -3
104 -10 133 -16 30 -7 59 -13 65 -14 54 -11 174 -56 252 -96 377 -191 614
-536 683 -995 4 -27 7 -117 7 -200 0 -139 -4 -190 -19 -270 -3 -16 -9 -46 -12
-65 -11 -67 -78 -256 -119 -335 -47 -91 -94 -168 -106 -173 -5 -2 -9 -9 -9
-14 0 -6 -6 -18 -14 -27 -36 -41 -184 -188 -206 -206 -46 -36 -153 -105 -162
-105 -6 0 -22 -8 -36 -18 -39 -26 -233 -89 -302 -98 -14 -2 -43 -6 -65 -10
-56 -9 -279 -9 -345 0 -270 38 -507 155 -677 336 -67 73 -92 103 -115 140 -12
19 -25 37 -29 40 -13 10 -132 230 -124 230 3 0 -4 20 -15 45 -11 25 -19 46
-19 48 0 1 -2 9 -5 17 -17 54 -28 94 -31 113 -2 12 -8 46 -14 75 -16 78 -24
185 -23 292 1 87 8 195 12 195 1 0 3 15 6 34 2 19 6 45 9 58 3 12 7 35 10 51
3 15 10 42 16 60 6 18 12 39 13 45 2 7 6 19 9 27 3 8 15 41 26 73 18 49 63
143 96 196 43 71 79 121 86 121 5 0 9 6 9 13 0 19 155 165 233 220 38 26 70
47 72 47 2 0 26 13 52 28 47 28 194 89 230 95 10 2 36 9 58 15 47 13 93 20
190 28 39 3 72 7 73 9 2 2 9 2 15 0 7 -3 48 -7 92 -9z"/>
</g>
</svg>
