<svg width="631" height="207" viewBox="0 0 631 207" fill="none" xmlns="http://www.w3.org/2000/svg">
<path d="M434.663 188.025H394.455V19.8198H560.079V188.025H517.631H434.663Z" stroke="white" stroke-width="2" stroke-miterlimit="10"/>
<path d="M590.423 19.8198H560.094V188.025H590.423L620.768 164.123V46.8519L590.423 19.8198Z" stroke="white" stroke-width="2" stroke-miterlimit="10"/>
<path d="M377.643 48.4153H251.947V161.93H377.643V48.4153Z" stroke="white" stroke-width="2" stroke-miterlimit="10"/>
<path d="M319.355 82.449H276.611V127.865H319.355V82.449Z" stroke="white" stroke-miterlimit="10"/>
<path d="M251.947 75.8921H243.188V134.453H251.947V75.8921Z" stroke="white" stroke-miterlimit="10"/>
<path d="M243.189 68.2671H237.937V142.082H243.189V68.2671Z" stroke="white" stroke-miterlimit="10"/>
<path d="M329.301 82.449H324.955V127.865H329.301V82.449Z" stroke="white" stroke-miterlimit="10"/>
<path d="M324.939 67.5752H319.34V142.741H324.939V67.5752Z" stroke="white" stroke-miterlimit="10"/>
<path d="M334.899 67.5752H329.301V142.741H334.899V67.5752Z" stroke="white" stroke-miterlimit="10"/>
<path d="M383.242 76.2871H377.644V134.041H383.242V76.2871Z" stroke="white" stroke-miterlimit="10"/>
<path d="M276.612 86.0229H251.947V124.29H276.612V86.0229Z" stroke="white" stroke-miterlimit="10"/>
<path d="M377.643 76.2871H334.899V134.041H377.643V76.2871Z" stroke="white" stroke-miterlimit="10"/>
<path d="M141.235 57.5073H91.4932V152.836H141.235V57.5073Z" stroke="white" stroke-miterlimit="10"/>
<path d="M129.824 69.5503H91.4932V140.763H129.824V69.5503Z" stroke="white" stroke-miterlimit="10"/>
<path d="M126.449 96.3862H95.3457V113.946H126.449V96.3862Z" stroke="white" stroke-miterlimit="10"/>
<path d="M95.3467 90.1257H91.9878V120.205H95.3467V90.1257Z" stroke="white" stroke-miterlimit="10"/>
<path d="M129.809 90.1257H126.45V120.205H129.809V90.1257Z" stroke="white" stroke-miterlimit="10"/>
<path d="M91.4922 51.3979H86.3057V158.933H91.4922V51.3979Z" stroke="white" stroke-miterlimit="10"/>
<path d="M100.22 7.61353H1V17.1514H100.22V7.61353Z" stroke="white" stroke-width="2" stroke-miterlimit="10"/>
<path d="M100.22 188.188H1V197.726H100.22V188.188Z" stroke="white" stroke-miterlimit="10"/>
<path d="M383.242 77.77L394.405 22.4868V187.414C394.405 187.534 394.232 187.552 394.207 187.434L383.242 135.573V77.77Z" stroke="white" stroke-miterlimit="10"/>
<path d="M141.235 147.648L237.935 142.294V68.479L141.235 62.697V146.248" stroke="white" stroke-width="2" stroke-miterlimit="10"/>
<path d="M141.235 57.4277H197.316V66.389" stroke="white" stroke-miterlimit="10"/>
<path d="M141.235 152.754H197.316V144.534" stroke="white" stroke-miterlimit="10"/>
<path d="M86.307 17.1489H17.6797V187.825H86.307V17.1489Z" stroke="white" stroke-width="2" stroke-miterlimit="10"/>
<path d="M33.9309 17.1489H23.2778V188.187H33.9309V17.1489Z" stroke="white" stroke-width="2" stroke-miterlimit="10"/>
<path d="M42.377 17.1489H77.1187V58.496C77.1209 60.7796 76.6732 63.0412 75.8012 65.1516C74.9292 67.2621 73.65 69.1798 72.0367 70.7954C70.4235 72.4109 68.5078 73.6925 66.3992 74.5669C64.2906 75.4413 62.0304 75.8914 59.7478 75.8914V75.8914C57.4653 75.8914 55.2051 75.4413 53.0965 74.5669C50.9879 73.6925 49.0722 72.4109 47.4589 70.7954C45.8457 69.1798 44.5665 67.2621 43.6945 65.1516C42.8225 63.0412 42.3748 60.7796 42.377 58.496V17.1489Z" stroke="white" stroke-width="2" stroke-miterlimit="10"/>
<path d="M59.7484 66.9666C64.9681 66.9666 69.1995 62.7332 69.1995 57.5111C69.1995 52.289 64.9681 48.0557 59.7484 48.0557C54.5288 48.0557 50.2974 52.289 50.2974 57.5111C50.2974 62.7332 54.5288 66.9666 59.7484 66.9666Z" stroke="white" stroke-miterlimit="10"/>
<path d="M59.7478 129.577C64.3549 129.577 68.7732 131.408 72.0309 134.667C75.2886 137.926 77.1187 142.347 77.1187 146.956V188.303H42.377V146.956C42.377 142.347 44.2071 137.926 47.4648 134.667C50.7224 131.408 55.1408 129.577 59.7478 129.577V129.577Z" stroke="white" stroke-width="2" stroke-miterlimit="10"/>
<path d="M59.7484 157.417C64.9681 157.417 69.1995 153.183 69.1995 147.961C69.1995 142.739 64.9681 138.506 59.7484 138.506C54.5288 138.506 50.2974 142.739 50.2974 147.961C50.2974 153.183 54.5288 157.417 59.7484 157.417Z" stroke="white" stroke-miterlimit="10"/>
<path d="M6.69043 7.46826V1H630V205.608H6.69043V198.827" stroke="white" stroke-width="2" stroke-miterlimit="10"/>
</svg>
