<svg width="130" height="25" viewBox="0 0 130 25" fill="none" xmlns="http://www.w3.org/2000/svg">
<g clip-path="url(#clip0_2991_45548)">
<g clip-path="url(#clip1_2991_45548)">
<path d="M89.6006 12.1415C89.3004 12.482 88.8962 12.715 88.4499 12.8046C88.0037 12.8942 87.5402 12.8354 87.1308 12.6374H87.1174C86.6179 12.4036 86.073 12.2816 85.521 12.28C84.9916 12.2727 84.468 12.389 83.992 12.6195C83.5443 12.8407 83.1457 13.1491 82.82 13.5263C82.4881 13.9151 82.2288 14.3599 82.0544 14.8396C81.8682 15.3477 81.7747 15.8847 81.7782 16.4254C81.7739 16.9657 81.8619 17.5027 82.0386 18.0135C82.2034 18.4964 82.4629 18.9421 82.802 19.3246C83.1368 19.7029 83.5475 20.0072 84.0077 20.218C84.5013 20.4394 85.0379 20.55 85.5794 20.5419C86.1312 20.5409 86.678 20.4372 87.1915 20.2359H87.2072C87.6484 20.0666 88.1321 20.0402 88.5893 20.1605C89.0466 20.2808 89.4539 20.5417 89.7533 20.9059L91.4394 22.9519C90.6939 23.6432 89.8047 24.1632 88.8349 24.4751C87.7453 24.8457 86.6007 25.0314 85.4492 25.0246C84.2271 25.0353 83.0121 24.8381 81.8568 24.4416C80.7865 24.0768 79.8025 23.4984 78.9649 22.7419C78.1366 21.9855 77.4779 21.0638 77.0318 20.0371C76.0943 17.7459 76.0943 15.1809 77.0318 12.8898C77.4785 11.864 78.1371 10.9432 78.9649 10.1872C79.8043 9.42879 80.7875 8.84483 81.8568 8.46958C82.9972 8.06487 84.2002 7.86227 85.411 7.871C85.9947 7.87083 86.5773 7.92467 87.151 8.03181C87.7149 8.14078 88.2702 8.29007 88.8125 8.47852C89.3231 8.64935 89.8138 8.87398 90.2764 9.14858C90.696 9.39978 91.0842 9.69968 91.4327 10.042L89.6006 12.1415Z" fill="white"/>
<path d="M103.99 24.4818V15.7397C103.992 15.3061 103.96 14.8729 103.894 14.4443C103.838 14.0623 103.711 13.694 103.519 13.3588C103.341 13.0534 103.089 12.797 102.787 12.6128C102.429 12.4168 102.023 12.3218 101.615 12.3381C100.681 12.3381 99.9645 12.6671 99.4661 13.3253C98.9513 14.0356 98.6883 14.8959 98.7184 15.771V24.4818H93.3793V5.31136C93.3793 4.61348 93.5175 3.92245 93.7861 3.27775C94.0547 2.63306 94.4484 2.04734 94.9447 1.55408C95.4409 1.06082 96.0301 0.669675 96.6783 0.403018C97.3266 0.13636 98.0214 -0.000585062 98.7229 1.87873e-06V10.3949H98.788C99.2211 9.68284 99.8242 9.08823 100.544 8.66389C101.416 8.13773 102.423 7.87326 103.442 7.90226C104.404 7.87081 105.359 8.07079 106.226 8.48521C106.94 8.84523 107.563 9.35963 108.05 9.99062C108.524 10.6243 108.867 11.3456 109.058 12.1125C109.262 12.8951 109.366 13.7004 109.368 14.5091V24.4818H103.99Z" fill="white"/>
<path d="M129.465 16.3539C129.482 17.5821 129.238 18.8 128.748 19.9276C128.297 20.9608 127.631 21.8877 126.795 22.648C125.959 23.4004 124.986 23.9885 123.93 24.3813C121.687 25.2001 119.224 25.2001 116.981 24.3813C115.922 23.9943 114.949 23.4056 114.116 22.648C113.288 21.8845 112.628 20.9581 112.179 19.9276C111.689 18.8 111.445 17.5821 111.462 16.3539C111.443 15.1292 111.688 13.9146 112.179 12.7914C112.63 11.7736 113.29 10.8607 114.116 10.1112C114.948 9.36497 115.923 8.79232 116.981 8.42709C119.232 7.64979 121.68 7.64979 123.93 8.42709C124.986 8.79805 125.959 9.37006 126.795 10.1112C127.629 10.8575 128.295 11.7709 128.748 12.7914C129.239 13.9146 129.484 15.1292 129.465 16.3539ZM124.321 16.3539C124.32 15.836 124.232 15.3217 124.06 14.8329C123.897 14.3521 123.643 13.9064 123.313 13.5196C122.977 13.1347 122.567 12.821 122.107 12.5971C121.36 12.2289 120.51 12.1197 119.693 12.2868C118.876 12.454 118.139 12.8878 117.599 13.5196C117.279 13.9086 117.036 14.3542 116.882 14.8329C116.556 15.8217 116.556 16.8884 116.882 17.8772C117.042 18.3647 117.29 18.8189 117.614 19.2173C117.942 19.619 118.353 19.9452 118.82 20.1733C119.342 20.4072 119.908 20.5282 120.48 20.5282C121.053 20.5282 121.619 20.4072 122.141 20.1733C122.607 19.9449 123.017 19.6188 123.344 19.2173C123.669 18.8195 123.917 18.3651 124.076 17.8772C124.238 17.3855 124.32 16.8713 124.319 16.3539H124.321Z" fill="white"/>
<path d="M74.4272 16.613V17.2652C74.4278 17.4711 74.4166 17.6769 74.3935 17.8816H62.642C62.6799 18.3176 62.819 18.7389 63.0484 19.1123C63.2799 19.4817 63.5783 19.8051 63.9285 20.066C64.674 20.6241 65.5821 20.9252 66.515 20.9237C67.2593 20.947 67.9977 20.7858 68.6637 20.4547H68.6817C69.2104 20.1598 69.8087 20.011 70.4147 20.0236C71.0206 20.0361 71.6122 20.2096 72.1281 20.5261L73.8075 21.5804C73.0503 22.6806 72.0106 23.559 70.7967 24.1244C69.4334 24.7425 67.9478 25.0479 66.4499 25.0178C65.2758 25.0248 64.1089 24.8337 62.999 24.4527C61.9492 24.0952 60.9813 23.5333 60.1521 22.7999C59.3231 22.0561 58.6673 21.1414 58.2302 20.1196C57.746 18.9721 57.5082 17.7366 57.5319 16.4924C57.5118 15.2681 57.7409 14.0525 58.2055 12.9187C58.6302 11.8947 59.2623 10.9687 60.0623 10.1982C60.8592 9.44314 61.7996 8.85389 62.8284 8.46502C63.9303 8.04882 65.1006 7.84053 66.2793 7.8508C67.4035 7.8379 68.5196 8.04115 69.5663 8.44938C70.541 8.83311 71.4193 9.42473 72.1393 10.1826C72.8792 10.9776 73.449 11.9137 73.8143 12.9343C74.2356 14.1149 74.4431 15.3604 74.4272 16.613ZM69.5102 14.5738C69.5269 13.7764 69.2425 13.0017 68.7131 12.4027C68.1817 11.7997 67.3839 11.4974 66.3197 11.4959C65.8314 11.4912 65.3463 11.5737 64.8873 11.7394C64.4706 11.8933 64.0851 12.1203 63.7489 12.4095C63.4272 12.6856 63.1619 13.0208 62.9676 13.3967C62.7758 13.7638 62.6649 14.1673 62.642 14.5804L69.5102 14.5738Z" fill="white"/>
<path d="M46.9818 25.0001C51.7459 25.0001 55.608 21.1581 55.608 16.4188C55.608 11.6795 51.7459 7.83759 46.9818 7.83759C42.2177 7.83759 38.3557 11.6795 38.3557 16.4188C38.3557 21.1581 42.2177 25.0001 46.9818 25.0001Z" fill="white"/>
<path d="M27.805 25.0001C32.5691 25.0001 36.4312 21.1581 36.4312 16.4188C36.4312 11.6795 32.5691 7.83759 27.805 7.83759C23.0409 7.83759 19.1788 11.6795 19.1788 16.4188C19.1788 21.1581 23.0409 25.0001 27.805 25.0001Z" fill="white"/>
<path d="M8.62647 25.0001C13.3906 25.0001 17.2526 21.1581 17.2526 16.4188C17.2526 11.6795 13.3906 7.83759 8.62647 7.83759C3.86237 7.83759 0.000305176 11.6795 0.000305176 16.4188C0.000305176 21.1581 3.86237 25.0001 8.62647 25.0001Z" fill="white"/>
</g>
<path d="M89.6006 12.1415C89.3004 12.482 88.8962 12.715 88.4499 12.8046C88.0037 12.8942 87.5402 12.8354 87.1308 12.6374H87.1174C86.6179 12.4036 86.073 12.2816 85.521 12.28C84.9916 12.2727 84.468 12.389 83.992 12.6195C83.5443 12.8407 83.1457 13.1491 82.82 13.5263C82.4881 13.9151 82.2288 14.3599 82.0544 14.8396C81.8682 15.3477 81.7747 15.8847 81.7782 16.4254C81.7739 16.9657 81.8619 17.5027 82.0386 18.0135C82.2034 18.4964 82.4629 18.9421 82.802 19.3246C83.1368 19.7029 83.5475 20.0072 84.0077 20.218C84.5013 20.4394 85.0379 20.55 85.5794 20.5419C86.1312 20.5409 86.678 20.4372 87.1915 20.2359H87.2072C87.6484 20.0666 88.1321 20.0402 88.5893 20.1605C89.0466 20.2808 89.4539 20.5417 89.7533 20.9059L91.4394 22.9519C90.6939 23.6432 89.8047 24.1632 88.8349 24.4751C87.7453 24.8457 86.6007 25.0314 85.4492 25.0246C84.2271 25.0353 83.0121 24.8381 81.8568 24.4416C80.7865 24.0768 79.8025 23.4984 78.9649 22.7419C78.1366 21.9855 77.4779 21.0638 77.0318 20.0371C76.0943 17.7459 76.0943 15.1809 77.0318 12.8898C77.4785 11.864 78.1371 10.9432 78.9649 10.1872C79.8043 9.42879 80.7875 8.84483 81.8568 8.46958C82.9972 8.06487 84.2002 7.86227 85.411 7.871C85.9947 7.87083 86.5773 7.92467 87.151 8.03181C87.7149 8.14078 88.2702 8.29007 88.8125 8.47852C89.3231 8.64935 89.8138 8.87398 90.2764 9.14858C90.696 9.39978 91.0842 9.69968 91.4327 10.042L89.6006 12.1415Z" fill="white"/>
<path d="M103.99 24.4818V15.7397C103.992 15.3061 103.96 14.8729 103.894 14.4443C103.838 14.0623 103.711 13.694 103.519 13.3588C103.341 13.0534 103.089 12.797 102.787 12.6128C102.429 12.4168 102.023 12.3218 101.615 12.3381C100.681 12.3381 99.9645 12.6671 99.4661 13.3253C98.9513 14.0356 98.6883 14.8959 98.7184 15.771V24.4818H93.3793V5.31136C93.3793 4.61348 93.5175 3.92245 93.7861 3.27775C94.0547 2.63306 94.4484 2.04734 94.9447 1.55408C95.4409 1.06082 96.0301 0.669675 96.6783 0.403018C97.3266 0.13636 98.0214 -0.000585062 98.7229 1.87873e-06V10.3949H98.788C99.2211 9.68284 99.8242 9.08823 100.544 8.66389C101.416 8.13773 102.423 7.87326 103.442 7.90226C104.404 7.87081 105.359 8.07079 106.226 8.48521C106.94 8.84523 107.563 9.35963 108.05 9.99062C108.524 10.6243 108.867 11.3456 109.058 12.1125C109.262 12.8951 109.366 13.7004 109.368 14.5091V24.4818H103.99Z" fill="white"/>
<path d="M129.465 16.3539C129.482 17.5821 129.238 18.8 128.748 19.9276C128.297 20.9608 127.631 21.8877 126.795 22.648C125.959 23.4004 124.986 23.9885 123.93 24.3813C121.687 25.2001 119.224 25.2001 116.981 24.3813C115.922 23.9943 114.949 23.4056 114.116 22.648C113.288 21.8845 112.628 20.9581 112.179 19.9276C111.689 18.8 111.445 17.5821 111.462 16.3539C111.443 15.1292 111.688 13.9146 112.179 12.7914C112.63 11.7736 113.29 10.8607 114.116 10.1112C114.948 9.36497 115.923 8.79232 116.981 8.42709C119.232 7.64979 121.68 7.64979 123.93 8.42709C124.986 8.79805 125.959 9.37006 126.795 10.1112C127.629 10.8575 128.295 11.7709 128.748 12.7914C129.239 13.9146 129.484 15.1292 129.465 16.3539ZM124.321 16.3539C124.32 15.836 124.232 15.3217 124.06 14.8329C123.897 14.3521 123.643 13.9064 123.313 13.5196C122.977 13.1347 122.567 12.821 122.107 12.5971C121.36 12.2289 120.51 12.1197 119.693 12.2868C118.876 12.454 118.139 12.8878 117.599 13.5196C117.279 13.9086 117.036 14.3542 116.882 14.8329C116.556 15.8217 116.556 16.8884 116.882 17.8772C117.042 18.3647 117.29 18.8189 117.614 19.2173C117.942 19.619 118.353 19.9452 118.82 20.1733C119.342 20.4072 119.908 20.5282 120.48 20.5282C121.053 20.5282 121.619 20.4072 122.141 20.1733C122.607 19.9449 123.017 19.6188 123.344 19.2173C123.669 18.8195 123.917 18.3651 124.076 17.8772C124.238 17.3855 124.32 16.8713 124.319 16.3539H124.321Z" fill="white"/>
<path d="M74.4272 16.613V17.2652C74.4278 17.4711 74.4166 17.6769 74.3935 17.8816H62.642C62.6799 18.3176 62.819 18.7389 63.0484 19.1123C63.2799 19.4817 63.5783 19.8051 63.9285 20.066C64.674 20.6241 65.5821 20.9252 66.515 20.9237C67.2593 20.947 67.9977 20.7858 68.6637 20.4547H68.6817C69.2104 20.1598 69.8087 20.011 70.4147 20.0236C71.0206 20.0361 71.6122 20.2096 72.1281 20.5261L73.8075 21.5804C73.0503 22.6806 72.0106 23.559 70.7967 24.1244C69.4334 24.7425 67.9478 25.0479 66.4499 25.0178C65.2758 25.0248 64.1089 24.8337 62.999 24.4527C61.9492 24.0952 60.9813 23.5333 60.1521 22.7999C59.3231 22.0561 58.6673 21.1414 58.2302 20.1196C57.746 18.9721 57.5082 17.7366 57.5319 16.4924C57.5118 15.2681 57.7409 14.0525 58.2055 12.9187C58.6302 11.8947 59.2623 10.9687 60.0623 10.1982C60.8592 9.44314 61.7996 8.85389 62.8284 8.46502C63.9303 8.04882 65.1006 7.84053 66.2793 7.8508C67.4035 7.8379 68.5196 8.04115 69.5663 8.44938C70.541 8.83311 71.4193 9.42473 72.1393 10.1826C72.8792 10.9776 73.449 11.9137 73.8143 12.9343C74.2356 14.1149 74.4431 15.3604 74.4272 16.613ZM69.5102 14.5738C69.5269 13.7764 69.2425 13.0017 68.7131 12.4027C68.1817 11.7997 67.3839 11.4974 66.3197 11.4959C65.8314 11.4912 65.3463 11.5737 64.8873 11.7394C64.4706 11.8933 64.0851 12.1203 63.7489 12.4095C63.4272 12.6856 63.1619 13.0208 62.9676 13.3967C62.7758 13.7638 62.6649 14.1673 62.642 14.5804L69.5102 14.5738Z" fill="white"/>
<path opacity="0.3" d="M46.9818 25.0001C51.7459 25.0001 55.608 21.1581 55.608 16.4188C55.608 11.6795 51.7459 7.83759 46.9818 7.83759C42.2177 7.83759 38.3557 11.6795 38.3557 16.4188C38.3557 21.1581 42.2177 25.0001 46.9818 25.0001Z" fill="#DB0B5B"/>
<path opacity="0.7" d="M27.805 25.0001C32.5691 25.0001 36.4312 21.1581 36.4312 16.4188C36.4312 11.6795 32.5691 7.83759 27.805 7.83759C23.0409 7.83759 19.1788 11.6795 19.1788 16.4188C19.1788 21.1581 23.0409 25.0001 27.805 25.0001Z" fill="#DB0B5B"/>
<path d="M8.62647 25.0001C13.3906 25.0001 17.2526 21.1581 17.2526 16.4188C17.2526 11.6795 13.3906 7.83759 8.62647 7.83759C3.86237 7.83759 0.000305176 11.6795 0.000305176 16.4188C0.000305176 21.1581 3.86237 25.0001 8.62647 25.0001Z" fill="#DB0B5B"/>
</g>
<defs>
<clipPath id="clip0_2991_45548">
<rect width="129.464" height="25" fill="white"/>
</clipPath>
<clipPath id="clip1_2991_45548">
<rect width="129.464" height="25" fill="white"/>
</clipPath>
</defs>
</svg>
